<?xml version="1.0" standalone="no"?>
<!DOCTYPE svg PUBLIC "-//W3C//DTD SVG 20010904//EN"
 "http://www.w3.org/TR/2001/REC-SVG-20010904/DTD/svg10.dtd">
<svg version="1.0" xmlns="http://www.w3.org/2000/svg"
 width="550.000000pt" height="550.000000pt" viewBox="0 0 550.000000 550.000000"
 preserveAspectRatio="xMidYMid meet">
<metadata>
Created by potrace 1.11, written by Peter Selinger 2001-2013
</metadata>
<g transform="translate(0.000000,550.000000) scale(0.100000,-0.100000)"
fill="#000000" stroke="none">
<path d="M2495 5179 c-473 -45 -922 -228 -1294 -527 -439 -352 -747 -863 -855
-1418 -136 -705 41 -1421 492 -1983 502 -626 1301 -964 2102 -890 838 77 1575
583 1945 1334 115 234 179 429 219 665 179 1060 -352 2104 -1309 2575 -290
142 -540 214 -860 245 -115 11 -324 11 -440 -1z m403 -730 c424 -46 833 -263
1099 -582 388 -466 502 -1059 313 -1628 -206 -620 -759 -1067 -1412 -1138 -56
-6 -312 -11 -605 -11 l-508 0 191 190 190 190 341 0 c450 0 559 19 792 135
260 130 456 326 586 586 95 191 135 362 135 584 0 222 -40 393 -135 584 -188
375 -537 635 -949 706 -68 11 -169 15 -430 15 l-341 0 -190 190 -190 190 508
0 c293 0 549 -5 605 -11z m-72 -1447 c92 -47 138 -123 138 -227 0 -104 -45
-179 -139 -228 -56 -30 -164 -30 -220 0 -205 108 -185 388 32 469 49 19 138
12 189 -14z"/>
</g>
</svg>
